<svg width="124" height="30" viewBox="0 0 124 30" fill="none" xmlns="http://www.w3.org/2000/svg">
<path d="M0.28 0.999998V6.2H5.88V29H12.36V0.999998H0.28ZM27.0641 0.52C21.1441 0.52 16.4641 4.12 16.4641 9.84C16.4641 15.12 20.7041 18.56 26.1041 18.56C29.0241 18.56 31.4241 17.68 33.0641 16.04C32.8641 21.44 29.8241 24.2 25.1841 24.2C23.2641 24.2 21.4641 23.84 19.9441 22.8L17.5441 27.56C19.5041 28.8 22.3441 29.48 25.3041 29.48C33.7841 29.48 39.5841 24.08 39.5841 14.4C39.5841 5.36 34.8241 0.52 27.0641 0.52ZM27.5441 13.72C24.6641 13.72 22.7841 12.08 22.7841 9.52C22.7841 6.96 24.7041 5.36 27.4641 5.36C30.5441 5.36 32.3441 7.12 32.3441 9.52C32.3441 11.96 30.3841 13.72 27.5441 13.72ZM52.5328 0.52C46.6128 0.52 41.9328 4.12 41.9328 9.84C41.9328 15.12 46.1728 18.56 51.5728 18.56C54.4928 18.56 56.8928 17.68 58.5328 16.04C58.3328 21.44 55.2928 24.2 50.6528 24.2C48.7328 24.2 46.9328 23.84 45.4128 22.8L43.0128 27.56C44.9728 28.8 47.8128 29.48 50.7728 29.48C59.2528 29.48 65.0528 24.08 65.0528 14.4C65.0528 5.36 60.2928 0.52 52.5328 0.52ZM53.0128 13.72C50.1328 13.72 48.2528 12.08 48.2528 9.52C48.2528 6.96 50.1728 5.36 52.9328 5.36C56.0128 5.36 57.8128 7.12 57.8128 9.52C57.8128 11.96 55.8528 13.72 53.0128 13.72ZM80.1616 29.48C87.0816 29.48 92.1616 24.24 92.1616 15C92.1616 5.76 87.0816 0.52 80.1616 0.52C73.2816 0.52 68.1616 5.76 68.1616 15C68.1616 24.24 73.2816 29.48 80.1616 29.48ZM80.1616 24C76.9616 24 74.7216 21.36 74.7216 15C74.7216 8.64 76.9616 6 80.1616 6C83.4016 6 85.6416 8.64 85.6416 15C85.6416 21.36 83.4016 24 80.1616 24ZM110.95 19.84C118.43 19.84 123.11 16.68 123.11 10.44C123.11 4.16 118.43 0.999998 110.95 0.999998H98.83V22.08H94.95V25.4H98.83V29H105.35V25.4H113.99V22.08H105.35V19.84H110.95ZM116.55 10.48C116.55 13.24 114.51 14.76 110.91 14.76H105.35V6.28H110.91C114.51 6.28 116.55 7.76 116.55 10.48Z" fill="black"/>
</svg>
